Travel writer Lemuel Gulliver takes an assignment in Bermuda, but ends up on the island of Liliput, where he towers over its tiny citizens. 


Director: Rob Letterman
Writers: Joe Stillman (screenplay), Nicholas Stoller (screenplay), and 1 more credit » 
Stars:Jack Black, Emily Blunt and Jason Segel 

Media info:

General
Complete name                    : D:\upload torrents\Gullivers Travels 2010. BluRayrip.mkv 1080p AVC DTS 5.1.ACB-Team\Gullivers Travels 2010. BluRayrip.mkv 1080p AVC DTS 5.1.ACB-Team.mkv
Format                           : Matroska
File size                        : 5.92 GiB
Duration                         : 1h 24mn
Overall bit rate                 : 9 999 Kbps
Movie name                       : movie
Encoded date                     : UTC 2011-03-18 19:19:16
Writing application              : mkvmerge v3.2.0 ('Beginnings') built on Feb 12 2010 16:46:17
Writing library                  : libebml v0.7.9 + libmatroska v0.8.1

Video
ID                               : 1
Format                           : AVC
Format/Info                      : Advanced Video Codec
Format profile                   : Main@L4.1
Format settings, CABAC           : Yes
Format settings, ReFrames        : 2 frames
Format settings, GOP             : M=4, N=16
Muxing mode                      : Container profile=Unknown@0.0
Codec ID                         : V_MPEG4/ISO/AVC
Duration                         : 1h 24mn
Bit rate mode                    : Variable
Bit rate                         : 8 290 Kbps
Maximum bit rate                 : 35.0 Mbps
Width                            : 1 920 pixels
Height                           : 1 080 pixels
Display aspect ratio             : 16:9
Frame rate                       : 23.976 fps
Color space                      : YUV
Chroma subsampling               : 4:2:0
Bit depth                        : 8 bits
Scan type                        : Progressive
Bits/(Pixel*Frame)               : 0.167
Stream size                      : 4.90 GiB (83%)
Writing library                  : x264 core 114 r1900 60ef1f8
Encoding settings                : cabac=1 / ref=1 / deblock=0:0:0 / analyse=0:0 / me=dia / subme=0 / psy=1 / psy_rd=0.00:0.00 / mixed_ref=0 / me_range=16 / chroma_me=1 / trellis=0 / 8x8dct=0 / cqm=0 / deadzone=21,11 / fast_pskip=1 / chroma_qp_offset=0 / threads=3 / sliced_threads=0 / slices=4 / nr=0 / decimate=1 / interlaced=0 / constrained_intra=0 / bframes=3 / b_pyramid=0 / b_adapt=0 / b_bias=0 / direct=1 / weightb=0 / open_gop=0 / weightp=0 / keyint=24 / keyint_min=1 / scenecut=0 / intra_refresh=0 / rc_lookahead=0 / rc=crf / mbtree=0 / crf=22.0 / qcomp=0.60 / qpmin=0 / qpmax=69 / qpstep=4 / vbv_maxrate=35000 / vbv_bufsize=30000 / crf_max=0.0 / nal_hrd=vbr / ip_ratio=1.10 / pb_ratio=1.10 / aq=0

Audio
ID                               : 2
Format                           : DTS
Format/Info                      : Digital Theater Systems
Codec ID                         : A_DTS
Duration                         : 1h 24mn
Bit rate mode                    : Constant
Bit rate                         : 1 510 Kbps
Channel(s)                       : 6 channels
Channel positions                : Front: L C R, Side: L R, LFE
Sampling rate                    : 48.0 KHz
Bit depth                        : 24 bits
Stream size                      : 915 MiB (15%)
Language                         : English

Text #1
ID                               : 3
Format                           : VobSub
Muxing mode                      : zlib
Codec ID                         : S_VOBSUB
Codec ID/Info                    : The same subtitle format used on DVDs
Language                         : English

Text #2
ID                               : 4
Format                           : VobSub
Muxing mode                      : zlib
Codec ID                         : S_VOBSUB
Codec ID/Info                    : The same subtitle format used on DVDs
Language                         : Spanish

Text #3
ID                               : 5
Format                           : VobSub
Muxing mode                      : zlib
Codec ID                         : S_VOBSUB
Codec ID/Info                    : The same subtitle format used on DVDs
Title                            : Forced
Language                         : Spanish

Text #4
ID                               : 6
Format                           : VobSub
Muxing mode                      : zlib
Codec ID                         : S_VOBSUB
Codec ID/Info                    : The same subtitle format used on DVDs
Language                         : Portuguese

Text #5
ID                               : 7
Format                           : VobSub
Muxing mode                      : zlib
Codec ID                         : S_VOBSUB
Codec ID/Info                    : The same subtitle format used on DVDs
Title                            : Forced
Language                         : Portuguese

Text #6
ID                               : 8
Format                           : VobSub
Muxing mode                      : zlib
Codec ID                         : S_VOBSUB
Codec ID/Info                    : The same subtitle format used on DVDs
Title                            : Forced
Language                         : French

Text #7
ID                               : 9
Format                           : UTF-8
Codec ID                         : S_TEXT/UTF8
Codec ID/Info                    : UTF-8 Plain Text
Language                         : Dutch

Menu
00:00:00.000                     : en:00:00:00.000
00:03:06.353                     : en:00:03:06.353
00:06:35.312                     : en:00:06:35.312
00:10:05.688                     : en:00:10:05.688
00:12:32.919                     : en:00:12:32.919
00:14:30.703                     : en:00:14:30.703
00:16:29.113                     : en:00:16:29.113
00:20:13.421                     : en:00:20:13.421
00:23:03.549                     : en:00:23:03.549
00:26:02.269                     : en:00:26:02.269
00:29:24.680                     : en:00:29:24.680
00:34:32.529                     : en:00:34:32.529
00:38:50.119                     : en:00:38:50.119
00:42:48.441                     : en:00:42:48.441
00:48:49.802                     : en:00:48:49.802
00:52:30.272                     : en:00:52:30.272
00:55:11.683                     : en:00:55:11.683
01:00:36.800                     : en:01:00:36.800
01:05:50.905                     : en:01:05:50.905
01:08:17.176                     : en:01:08:17.176
01:10:59.839                     : en:01:10:59.839
01:14:45.147                     : en:01:14:45.147
01:16:27.416                     : en:01:16:27.416
01:20:10.764                     : en:01:20:10.764

